# xmcd
#
# Track frame offsets: 
#        150
#        17740
#        37556
#        56516
#        67703
#        85191
#        96703
#        115901
#        131404
#        150039
#        166438
#
# Disc length: 2448 seconds
#
# Revision: 0
# Processed by: cddbd v1.5.2PL0 Copyright (c) Steve Scherf et al.
# Submitted via: ExactAudioCopy v0.95b4
#
DISCID=78098e0b
DTITLE=Kris Kuester - Hillbilly Heartache
DYEAR=1900
DGENRE=Pop Country
TTITLE0=Hillbilly Heartache
TTITLE1=Family Farm
TTITLE2=Leavin' Look
TTITLE3=Down Home Jubilee
TTITLE4=A Lady On Her Own
TTITLE5=With Every Rose In Life (There Comes a Thorn)
TTITLE6=Whatever It Takes To Get To You
TTITLE7=Tennessee Homecoming
TTITLE8=Chicago In the Rain
TTITLE9=Fireworks In Houston
TTITLE10=Why Do They Die On the Streets
EXTD=
EXTT0=
EXTT1=
EXTT2=
EXTT3=
EXTT4=
EXTT5=
EXTT6=
EXTT7=
EXTT8=
EXTT9=
EXTT10=
PLAYORDER=
